<?xml version="1.0" encoding="UTF-8"?>
<svg width="112px" height="112px" viewBox="0 0 112 112" version="1.1" xmlns="http://www.w3.org/2000/svg" xmlns:xlink="http://www.w3.org/1999/xlink">
    <!-- Generator: Sketch 47.1 (45422) - http://www.bohemiancoding.com/sketch -->
    <title>asset</title>
    <desc>Created with Sketch.</desc>
    <defs></defs>
    <g id="资产管理" stroke="none" stroke-width="1" fill="none" fill-rule="evenodd">
        <g id="资产管理_查询无结果-copy" transform="translate(-132.000000, -188.000000)">
            <g id="asset" transform="translate(132.000000, 188.000000)">
                <path d="M56,112 C25.073125,112 0,86.926875 0,56 C0,25.073125 25.073125,0 56,0 C86.926875,0 112,25.073125 112,56 C112,86.926875 86.926875,112 56,112 L56,112 Z" id="Page-1" fill="#D9D9D9"></path>
                <g transform="translate(24.000000, 24.000000)">
                    <rect id="Rectangle-126" fill="#F3F3F3" opacity="0" x="0" y="0" width="64" height="64"></rect>
                    <path d="M32,16 L53.3333333,32 L53.3333333,53.3398809 C53.3333333,54.8090241 52.147651,56 50.6643422,56 L13.3356578,56 C11.8616147,56 10.6666667,54.8098363 10.6666667,53.3398809 L10.6666667,32 L32,16 Z M60.5491044,27.7449814 L32,6.98199643 L3.4508956,27.7449814 C2.85535879,28.1780991 2.02146957,28.0464324 1.58835189,27.4508956 C1.15523421,26.8553588 1.28690093,26.0214696 1.88243774,25.5883519 L31.2157711,4.25501855 C31.6833051,3.91499382 32.3166949,3.91499382 32.7842289,4.25501855 L62.1175623,25.5883519 C62.7130991,26.0214696 62.8447658,26.8553588 62.4116481,27.4508956 C61.9785304,28.0464324 61.1446412,28.1780991 60.5491044,27.7449814 Z M23,38 C24.1045695,38 25,37.1045695 25,36 C25,34.8954305 24.1045695,34 23,34 C21.8954305,34 21,34.8954305 21,36 C21,37.1045695 21.8954305,38 23,38 Z M39,38 C40.1045695,38 41,37.1045695 41,36 C41,34.8954305 40.1045695,34 39,34 C37.8954305,34 37,34.8954305 37,36 C37,37.1045695 37.8954305,38 39,38 Z M24,46 L24,48 L38,48 L38,46 L24,46 Z" id="Combined-Shape" fill="#FFFFFF"></path>
                </g>
            </g>
        </g>
    </g>
</svg>