<?xml version="1.0" encoding="UTF-8"?>
<svg width="245px" height="134px" viewBox="0 0 245 134" version="1.1" xmlns="http://www.w3.org/2000/svg" xmlns:xlink="http://www.w3.org/1999/xlink">
    <!-- Generator: Sketch 44.1 (41455) - http://www.bohemiancoding.com/sketch -->
    <title>cooperation_msg_default</title>
    <desc>Created with Sketch.</desc>
    <defs>
        <path d="M91.3278687,16.5426294 C107.873885,22.371575 119.5,36.1380013 119.5,52.1921007 C119.5,61.9008732 115.248019,70.7729823 108.227299,77.5588346 L108.227299,92.5926127 C108.227299,95.9037702 105.765209,97.5264109 102.728067,96.2100231 L86.6514391,89.2419344 C82.5308488,90.2663119 78.1686735,90.8160644 73.6540881,90.8160644 C65.7480641,90.8160644 58.3094464,89.1301029 51.8171546,86.161657 C79.7153322,85.8415169 102.213836,66.6890303 102.213836,43.1095081 C102.213836,33.0846858 98.1471845,23.8600595 91.3278687,16.5426294 Z" id="path-1"></path>
        <filter x="-79.5%" y="-23.1%" width="183.6%" height="126.5%" filterUnits="objectBoundingBox" id="filter-2">
            <feOffset dx="4" dy="3" in="SourceAlpha" result="shadowOffsetInner1"></feOffset>
            <feComposite in="shadowOffsetInner1" in2="SourceAlpha" operator="arithmetic" k2="-1" k3="1" result="shadowInnerInner1"></feComposite>
            <feColorMatrix values="0 0 0 0 0.933333333   0 0 0 0 0.933333333   0 0 0 0 0.933333333  0 0 0 1 0" type="matrix" in="shadowInnerInner1"></feColorMatrix>
        </filter>
    </defs>
    <g id="首页-工程师" stroke="none" stroke-width="1" fill="none" fill-rule="evenodd">
        <g id="消息_空页面" transform="translate(-65.000000, -188.000000)">
            <g id="cooperation_msg_default" transform="translate(65.000000, 188.000000)">
                <rect id="Rectangle-469" fill="#FFFFFF" opacity="0" x="0" y="0" width="245" height="134"></rect>
                <ellipse id="Oval-308" fill="#EEEEEE" cx="123.5" cy="112.921348" rx="65.5" ry="13.5505618"></ellipse>
                <g id="Group" transform="translate(63.000000, 20.074906)">
                    <g id="Combined-Shape">
                        <use fill="#F8F8F8" fill-rule="evenodd" xlink:href="#path-1"></use>
                        <use fill="black" fill-opacity="1" filter="url(#filter-2)" xlink:href="#path-1"></use>
                        <use stroke="#D9D9D9" stroke-width="1.5" xlink:href="#path-1"></use>
                    </g>
                    <path d="M36.6180678,84.410962 C41.2115128,85.552891 46.0742656,86.1657298 51.1069182,86.1657298 C79.3324898,86.1657298 102.213836,66.8888027 102.213836,43.1095081 C102.213836,19.3302134 79.3324898,0.0532863228 51.1069182,0.0532863228 C22.8813467,0.0532863228 0,19.3302134 0,43.1095081 C0,53.9324019 4.73991379,63.8226219 12.5662893,71.3871786 L12.5662893,88.8258486 C12.5662893,92.1506918 15.0303981,93.7677002 18.0700304,92.4502332 L36.6180678,84.410962 Z" id="Oval-93" stroke="#D9D9D9" stroke-width="1.5" fill="#F8F8F8"></path>
                    <path d="M27.0566038,50.5036214 C23.5284073,50.5036214 20.668239,47.6350311 20.668239,44.0964456 C20.668239,40.5578601 23.5284073,37.6892697 27.0566038,37.6892697 C30.5848002,37.6892697 33.4449686,40.5578601 33.4449686,44.0964456 C33.4449686,47.6350311 30.5848002,50.5036214 27.0566038,50.5036214 Z M51.1069182,50.5036214 C47.5787218,50.5036214 44.7185535,47.6350311 44.7185535,44.0964456 C44.7185535,40.5578601 47.5787218,37.6892697 51.1069182,37.6892697 C54.6351147,37.6892697 57.495283,40.5578601 57.495283,44.0964456 C57.495283,47.6350311 54.6351147,50.5036214 51.1069182,50.5036214 Z M75.1572327,50.5036214 C71.6290363,50.5036214 68.7688679,47.6350311 68.7688679,44.0964456 C68.7688679,40.5578601 71.6290363,37.6892697 75.1572327,37.6892697 C78.6854291,37.6892697 81.5455975,40.5578601 81.5455975,44.0964456 C81.5455975,47.6350311 78.6854291,50.5036214 75.1572327,50.5036214 Z" id="Combined-Shape" stroke="#D9D9D9" stroke-width="1.5" fill="#FFFFFF"></path>
                    <path d="M108.75,67.2509363 C110.544925,67.2509363 112,65.8068532 112,64.0254864 C112,62.2441196 108.75,58.7191011 108.75,58.7191011 C108.75,58.7191011 105.5,62.2441196 105.5,64.0254864 C105.5,65.8068532 106.955075,67.2509363 108.75,67.2509363 Z" id="Oval-307" stroke="#D9D9D9" stroke-width="1.5" fill="#FFFFFF"></path>
                </g>
                <g id="Group-3" transform="translate(24.000000, 56.209738)" stroke="#D9D9D9" stroke-width="1.5" stroke-linecap="round">
                    <path d="M15.0538663,0.752808989 L20.3910376,0.752808989" id="Path-202-Copy-2" fill="#EEEEEE"></path>
                    <path d="M20,11.5430712 L3.00012623,11.5430712 C1.34320226,11.5430712 0,10.1915109 0,8.53183521 C0,6.86877551 1.34105836,5.52059925 3.00012623,5.52059925" id="Rectangle-502"></path>
                    <path d="M15.5979388,20.8277154 L25.3018866,20.8277154" id="Path-202-Copy-4" fill="#EEEEEE"></path>
                </g>
                <g id="Group-2" transform="translate(171.000000, 7.026217)" stroke="#D9D9D9" stroke-width="1.5" stroke-linecap="round">
                    <path d="M20.9907121,0 L23.0005224,0 C26.0378,0 28.5,2.4709861 28.5,5.52059925 L28.5,5.52059925 C28.5,8.56954203 26.0335916,11.0411985 22.997754,11.0411985 L2.91435642,11.0411985 L-8.43037286e-05,11.0411985" id="Rectangle-469"></path>
                    <path d="M10,17.8164794 L21.5047166,17.8164794" id="Path-202"></path>
                    <path d="M0.539175506,17.8164794 L4.42075465,17.8164794" id="Path-202-Copy-6"></path>
                    <path d="M6.25,25.3445693 L19.1136789,25.3445693" id="Path-202-Copy"></path>
                </g>
            </g>
        </g>
    </g>
</svg>