<?xml version="1.0" encoding="UTF-8"?>
<svg width="112px" height="112px" viewBox="0 0 112 112" version="1.1" xmlns="http://www.w3.org/2000/svg" xmlns:xlink="http://www.w3.org/1999/xlink">
    <!-- Generator: Sketch 47.1 (45422) - http://www.bohemiancoding.com/sketch -->
    <title>list</title>
    <desc>Created with Sketch.</desc>
    <defs></defs>
    <g id="服务单-工程师" stroke="none" stroke-width="1" fill="none" fill-rule="evenodd">
        <g id="工单列表_空页面" transform="translate(-131.000000, -188.000000)">
            <g id="list" transform="translate(131.000000, 188.000000)">
                <path d="M56,112 C25.073125,112 0,86.926875 0,56 C0,25.073125 25.073125,0 56,0 C86.926875,0 112,25.073125 112,56 C112,86.926875 86.926875,112 56,112 L56,112 Z" id="Page-1" fill="#D9D9D9"></path>
                <path d="M65.2111719,32.6492578 L65.2111719,37.3333789 L65.2111719,39.822207 C65.2111719,42.5724414 67.4387305,44.8 70.1888281,44.8 L77.6555859,44.8 C77.6853906,44.8 77.7127344,44.7924805 77.7426758,44.7900195 L65.2111719,32.6492578 Z" id="Path" fill="#FFFFFF"></path>
                <path d="M80.1245898,47.2888281 L75.1666211,47.2888281 L70.1888281,47.2888281 C66.0648437,47.2888281 62.722207,43.9463281 62.722207,39.822207 L62.722207,34.8444141 L62.722207,30.24 L62.3514258,29.8790625 L39.4262891,29.8790625 C35.7650977,29.8790625 32.7983008,32.9329492 32.7983008,36.5070508 L32.7983008,78.0863672 C32.7983008,81.6604687 35.7650977,84.5575391 39.4262891,84.5575391 L73.4990625,84.5575391 C77.1602539,84.5575391 80.1270508,81.6604687 80.1270508,78.0863672 L80.1270508,47.2888281 L80.1245898,47.2888281 Z" id="Path" fill="#FFFFFF"></path>
                <polygon id="Path" fill="#D9D9D9" points="42.7239453 69.5419922 70.1192383 69.5419922 70.1192383 67.3517578 42.7239453 67.3517578"></polygon>
                <polygon id="Path" fill="#D9D9D9" points="42.7239453 57.0304492 70.1192383 57.0304492 70.1192383 54.8402148 42.7239453 54.8402148"></polygon>
            </g>
        </g>
    </g>
</svg>