<?xml version="1.0" encoding="UTF-8"?>
<svg width="40px" height="40px" viewBox="0 0 40 40" version="1.1" xmlns="http://www.w3.org/2000/svg" xmlns:xlink="http://www.w3.org/1999/xlink">
    <!-- Generator: Sketch 44.1 (41455) - http://www.bohemiancoding.com/sketch -->
    <title>asset-rectangle</title>
    <desc>Created with Sketch.</desc>
    <defs></defs>
    <g id="后台配置及微信端入口" stroke="none" stroke-width="1" fill="none" fill-rule="evenodd">
        <g id="应用" transform="translate(-12.000000, -268.000000)">
            <g id="chatgroup-copy-8" transform="translate(0.000000, 256.000000)">
                <g id="asset-rectangle" transform="translate(12.000000, 12.000000)">
                    <rect id="Rectangle-4" fill="#4DAC40" x="0" y="0" width="40" height="40" rx="4"></rect>
                    <g id="报告" transform="translate(9.000000, 6.000000)" fill-rule="nonzero" fill="#FFFFFF">
                        <path d="M10.3892072,12.326087 L4.27784144,12.326087 L4.27784144,13.5 L10.3892072,13.5 L10.3892072,12.326087 Z M4.27784144,20.5423451 L17.7221586,20.5423451 L17.7221586,19.3684321 L4.27784144,19.3684321 L4.27784144,20.5423451 Z M21.7845609,8.0088971 L21.8200854,7.80153601 L14.2774247,0 L11.6107928,0 L2.44431712,0 C1.09438483,0 0,1.05153601 0,2.34782609 L0,24.6521739 C0,25.9495971 1.09438483,27 2.44431712,27 L19.5556829,27 C20.9056152,27 22,25.948464 22,24.6521739 L22,8.2173913 L21.7845609,8.0088971 Z M14.6670487,2.14839684 L20.0163559,7.62930166 L15.8886342,7.62930166 C15.2136681,7.62930166 14.6670487,7.10353366 14.6670487,6.45538862 L14.6670487,2.14839684 Z M20.7772685,24.6510408 C20.7772685,25.2991858 20.2295031,25.8249538 19.5556829,25.8249538 L2.44431712,25.8249538 C1.76935097,25.8249538 1.22158558,25.2991858 1.22158558,24.6510408 L1.22158558,2.34782609 C1.22158558,1.69968105 1.77049693,1.17391304 2.44431712,1.17391304 L13.4443171,1.17391304 L13.4443171,6.45652174 C13.4443171,7.75281182 14.5387019,8.80434783 15.8886342,8.80434783 L20.7784144,8.80434783 L20.7784144,24.6510408 L20.7772685,24.6510408 Z M4.27784144,17.020606 L17.7221586,17.020606 L17.7221586,15.8478261 L4.27784144,15.8478261 L4.27784144,17.020606 Z M10.3892072,8.80434783 L4.27784144,8.80434783 L4.27784144,9.97826087 L10.3892072,9.97826087 L10.3892072,8.80434783 Z" id="Shape"></path>
                    </g>
                </g>
            </g>
        </g>
    </g>
</svg>