<?xml version="1.0" encoding="UTF-8"?>
<svg width="112px" height="112px" viewBox="0 0 112 112" version="1.1" xmlns="http://www.w3.org/2000/svg" xmlns:xlink="http://www.w3.org/1999/xlink">
    <!-- Generator: Sketch 47.1 (45422) - http://www.bohemiancoding.com/sketch -->
    <title>att</title>
    <desc>Created with Sketch.</desc>
    <defs></defs>
    <g id="服务单-工程师" stroke="none" stroke-width="1" fill="none" fill-rule="evenodd">
        <g id="附件-空" transform="translate(-132.000000, -144.000000)" fill-rule="nonzero" fill="#D9D9D9">
            <path d="M227.622005,160.399579 C217.044363,149.824325 202.978185,144.000001 188.015754,144.000001 C173.053324,143.99689 158.987146,149.824325 148.40328,160.40269 C137.825638,170.977944 132,185.040948 132,200.000001 C132,214.959054 137.825638,229.022057 148.40328,239.600422 C158.980922,250.175676 173.0471,256 188.00953,256 C202.971961,256 217.038139,250.175676 227.615781,239.600422 C249.458813,217.762321 249.461925,182.231458 227.622005,160.399579 Z M173.380083,218.309907 C174.500398,219.43308 175.959919,220.030447 177.578152,220.055337 C179.159041,220.055337 180.643459,219.442414 181.763774,218.325463 L210.655455,189.477638 C215.155387,185.296073 215.41057,178.367243 211.312084,173.952332 C209.326637,171.811768 206.625433,170.576589 203.709502,170.464582 C200.818466,170.365021 198.008343,171.391745 195.864184,173.376744 L193.094516,176.05556 L166.228738,202.915274 C160.29418,208.851603 160.29418,218.509029 166.228738,224.442247 L166.885367,225.098728 C172.816813,231.028835 182.479531,231.031946 188.417201,225.098728 L215.310987,198.211012 L218.612804,201.512085 L191.719018,228.3998 C187.841483,232.27646 182.744049,234.21479 177.649728,234.21479 C172.555406,234.21479 167.461084,232.27646 163.580438,228.3998 L162.923808,227.743319 C155.17185,219.99 155.17185,207.373744 162.92692,199.617313 L192.652614,169.991667 C195.739704,167.126175 199.744831,165.657649 203.877549,165.803879 C208.041387,165.959443 211.894026,167.726652 214.729045,170.778822 C220.57958,177.079172 220.212365,186.966832 213.910593,192.816046 L212.295472,194.47436 L185.050031,221.632758 C183.049024,223.627091 180.3945,224.725374 177.571928,224.725374 C177.565704,224.725374 177.562592,224.725374 177.556368,224.725374 C174.724461,224.722263 172.066824,223.614646 170.068929,221.610979 C165.945547,217.476082 165.954883,210.755709 170.093825,206.633258 L197.31437,179.499751 L200.609963,182.807046 L173.389418,209.940553 C172.269103,211.057504 171.649818,212.544697 171.646706,214.128341 C171.643594,215.711984 172.259767,217.189844 173.380083,218.309907 Z" id="att"></path>
        </g>
    </g>
</svg>