<?xml version="1.0" encoding="UTF-8"?>
<svg width="26px" height="26px" viewBox="0 0 26 26" version="1.1" xmlns="http://www.w3.org/2000/svg" xmlns:xlink="http://www.w3.org/1999/xlink">
    <!-- Generator: Sketch 47.1 (45422) - http://www.bohemiancoding.com/sketch -->
    <title>Combined Shape</title>
    <desc>Created with Sketch.</desc>
    <defs></defs>
    <g id="首页-工程师" stroke="none" stroke-width="1" fill="none" fill-rule="evenodd">
        <g id="应用" transform="translate(-306.000000, -550.000000)" fill="#FFFFFF">
            <g id="Group-8" transform="translate(291.000000, 535.000000)">
                <path d="M27,27 L16.495457,27 C15.9552629,27 15.5,27.4477153 15.5,28 C15.5,28.5561352 15.9456813,29 16.495457,29 L27,29 L27,39.504543 C27,40.0447371 27.4477153,40.5 28,40.5 C28.5561352,40.5 29,40.0543187 29,39.504543 L29,29 L39.504543,29 C40.0447371,29 40.5,28.5522847 40.5,28 C40.5,27.4438648 40.0543187,27 39.504543,27 L29,27 L29,16.495457 C29,15.9552629 28.5522847,15.5 28,15.5 C27.4438648,15.5 27,15.9456813 27,16.495457 L27,27 Z" id="Combined-Shape"></path>
            </g>
        </g>
    </g>
</svg>