<?xml version="1.0" encoding="UTF-8"?>
<svg width="16px" height="16px" viewBox="0 0 16 16" version="1.1" xmlns="http://www.w3.org/2000/svg" xmlns:xlink="http://www.w3.org/1999/xlink">
    <!-- Generator: Sketch 47.1 (45422) - http://www.bohemiancoding.com/sketch -->
    <title>service@2x</title>
    <desc>Created with Sketch.</desc>
    <defs></defs>
    <g id="服务单-工程师" stroke="none" stroke-width="1" fill="none" fill-rule="evenodd">
        <g id="工单列表_搜索激活" transform="translate(-12.000000, -246.000000)">
            <g id="Group-3-Copy-4" transform="translate(0.000000, 232.000000)">
                <g id="Group-2">
                    <g id="service" transform="translate(12.000000, 14.000000)">
                        <rect id="Rectangle-22" x="0" y="0" width="16" height="16"></rect>
                        <path d="M1.5,3.00483078 C1.5,1.89759331 2.39354265,1 3.50276013,1 L12.4972399,1 C13.6033337,1 14.5,1.88846638 14.5,3.00483078 L14.5,14.2043486 C14.5,14.7559337 14.0735168,15.1024034 13.5268843,14.9733619 L8,13.6686503 L2.47311568,14.9733619 C1.93567873,15.1002327 1.5,14.7624372 1.5,14.2043486 L1.5,3.00483078 Z M5.60355339,7.14644661 C5.40829124,6.95118446 5.09170876,6.95118446 4.89644661,7.14644661 C4.70118446,7.34170876 4.70118446,7.65829124 4.89644661,7.85355339 L6.89644661,9.85355339 C7.10096456,10.0580713 7.4358277,10.0469216 7.62628835,9.8292523 L11.1262883,5.8292523 C11.3081294,5.62143399 11.2870706,5.30555268 11.0792523,5.12371165 C10.871434,4.94187063 10.5555527,4.96292938 10.3737117,5.1707477 L7.22564497,8.76853819 L5.60355339,7.14644661 Z" id="Combined-Shape" fill="#6D9F00"></path>
                    </g>
                </g>
            </g>
        </g>
    </g>
</svg>