<?xml version="1.0" encoding="UTF-8"?>
<svg width="24px" height="24px" viewBox="0 0 24 24" version="1.1" xmlns="http://www.w3.org/2000/svg" xmlns:xlink="http://www.w3.org/1999/xlink">
    <!-- Generator: Sketch 47.1 (45422) - http://www.bohemiancoding.com/sketch -->
    <title>vip</title>
    <desc>Created with Sketch.</desc>
    <defs></defs>
    <g id="服务单-工程师" stroke="none" stroke-width="1" fill="none" fill-rule="evenodd">
        <g id="工单详情_默认" transform="translate(-126.000000, -118.000000)">
            <g id="Group-10" transform="translate(0.000000, 108.000000)">
                <g id="Group-2-Copy-8" transform="translate(12.000000, 0.000000)">
                    <g id="vip" transform="translate(114.000000, 10.000000)">
                        <rect id="Rectangle-3" x="0" y="0" width="24" height="24"></rect>
                        <path d="M7.79093623,5.39217803 C7.79093623,5.39217803 9.3510013,4.47063741 9.88305044,5.45282703 C10.3082958,5.74378615 11.4074037,11.794019 11.6200751,12.9940728 C11.8332147,14.195007 12.40041,14.6315357 12.755363,14.1220721 C13.1093407,13.6132688 14.2794627,12.4121545 15.059739,10.5210303 C15.8400153,8.62948591 14.8117654,8.38680988 14.4917245,8.49606212 C14.1732245,8.60531435 12.5065897,8.64153167 13.1093407,7.91414388 C13.7122674,7.18643593 15.201455,5.87680975 15.591242,5.7313402 C16.3357091,5.22211672 17.4353826,4.55505777 18.3573749,5.64649963 C18.9245702,6.08294831 20.2364276,7.68393381 18.9594043,10.0479641 C17.6832587,12.4120745 12.6840174,18.4502616 12.6840174,18.4502616 C12.6840174,18.4502616 10.8755106,19.687173 10.1309461,18.4502616 C9.38638152,17.2141506 6.97535769,10.7391946 6.90442171,9.93903205 C6.83356374,9.13862935 6.62081429,8.92044503 6.23071514,9.13862935 C5.84061598,9.35679366 5.06067121,10.5575878 4.98989126,10.1934337 C4.91895527,9.82977982 4.20961493,9.39335114 4.6350358,8.66596335 C5.06067121,7.93833545 7.47161703,5.64657967 7.79093623,5.39217803" id="Fill-1" fill="#EFA200"></path>
                    </g>
                </g>
            </g>
        </g>
    </g>
</svg>