<?xml version="1.0" encoding="UTF-8"?>
<svg width="56px" height="56px" viewBox="0 0 56 56" version="1.1" xmlns="http://www.w3.org/2000/svg" xmlns:xlink="http://www.w3.org/1999/xlink">
    <!-- Generator: Sketch 43.1 (39012) - http://www.bohemiancoding.com/sketch -->
    <title>ico-service</title>
    <desc>Created with Sketch.</desc>
    <defs></defs>
    <g id="服务单-用户" stroke="none" stroke-width="1" fill="none" fill-rule="evenodd">
        <g id="首页" transform="translate(-263.000000, -517.000000)">
            <g id="Group-3-Copy" transform="translate(24.000000, 485.000000)">
                <g id="ico-service" transform="translate(239.000000, 32.000000)">
                    <circle id="Oval" fill="#7FAA23" cx="28" cy="28" r="28"></circle>
                    <path d="M22.6666584,17.6666634 L18.4333303,17.6666634 C17.093569,17.6666634 16,18.7560843 16,20.0999937 L16,39.233333 C16,40.5730944 17.0894209,41.6666634 18.4333303,41.6666634 L37.5666697,41.6666634 C38.906431,41.6666634 40,40.5772425 40,39.233333 L40,20.0999937 C40,18.7602324 38.9105791,17.6666634 37.5666697,17.6666634 L33.3333416,17.6666634 L33.3333416,17.9076705 C33.3333416,19.2473429 32.2518614,20.3333267 30.9129001,20.3333267 L25.0870999,20.3333267 C23.7503312,20.3333267 22.6666584,19.2473429 22.6666584,17.9076705 L22.6666584,17.6666634 L22.6666584,17.6666634 Z M34.2330442,27.6774066 L27.9804593,34.8505829 C27.8140891,35.1070863 27.4801636,35.287412 27.1106529,35.287412 C26.8198681,35.287412 26.4795722,35.2099602 26.2471873,34.9953531 L22.5406141,31.8373125 C22.0504518,31.3509724 22.0034889,30.6525733 22.395844,30.1078332 C22.9215322,29.5694042 23.6466276,29.5313598 24.1456492,29.9491075 L26.9544754,32.3223786 L32.3969279,26.0672456 C32.8858162,25.5720166 33.610882,25.5377351 34.1111776,25.9542087 C34.6127474,26.4532303 34.6496066,27.1783257 34.2330738,27.6773473 L34.2330442,27.6774066 Z M23.9999901,16.9999975 C23.9999901,15.8954359 24.886715,15 25.9980914,15 L30.001879,15 C31.1054036,15 31.9999802,15.8877322 31.9999802,16.9999975 C31.9999802,18.1045591 31.1132554,18.9999951 30.001879,18.9999951 L25.9980914,18.9999951 C24.8945668,18.9999951 23.9999901,18.1122628 23.9999901,16.9999975 L23.9999901,16.9999975 Z" id="Shape" fill-opacity="0.8" fill="#FFFFFF" fill-rule="nonzero"></path>
                </g>
            </g>
        </g>
    </g>
</svg>