<?xml version="1.0" encoding="UTF-8"?>
<svg width="180px" height="64px" viewBox="0 0 180 64" version="1.1" xmlns="http://www.w3.org/2000/svg" xmlns:xlink="http://www.w3.org/1999/xlink">
    <!-- Generator: Sketch 47.1 (45422) - http://www.bohemiancoding.com/sketch -->
    <title>logo</title>
    <desc>Created with Sketch.</desc>
    <defs>
        <polygon id="path-1" points="0.60683186 36.6347271 31.5681423 36.6347271 31.5681423 0.234801194 0.60683186 0.234801194 0.60683186 36.6347271"></polygon>
        <polygon id="path-3" points="39.4473913 35.8144383 39.4473913 0.49413373 0.289173913 0.49413373 0.289173913 35.8144383"></polygon>
    </defs>
    <g id="服务单-用户" stroke="none" stroke-width="1" fill="none" fill-rule="evenodd">
        <g id="登录" transform="translate(-98.000000, -56.000000)">
            <g id="Group" transform="translate(98.000000, 56.000000)">
                <rect id="Rectangle-5" x="0" y="0" width="180" height="64"></rect>
                <g id="Page-1" transform="translate(15.000000, 5.000000)">
                    <g id="Group-3" transform="translate(41.000000, 17.000000)">
                        <mask id="mask-2" fill="white">
                            <use xlink:href="#path-1"></use>
                        </mask>
                        <g id="Clip-2"></g>
                        <path d="M9.41811892,18.014361 C14.0715243,18.3713831 17.6228757,17.6433512 20.0708757,15.8315974 C22.5162811,14.0198436 23.8239568,12.0422344 23.9900108,9.89943595 C24.0626595,8.96092085 23.8356324,8.11365952 23.3043892,7.35831806 C22.7744432,6.6029766 21.9370378,6.18134419 20.790227,6.09408693 C19.0129297,5.95887149 17.0060108,6.87807009 14.7701189,8.84968449 C12.5355243,10.8226311 10.7504432,13.8779673 9.41811892,18.014361 L9.41811892,18.014361 Z M28.1219027,34.8536798 C24.6827676,36.1951769 14.528173,37.1090469 10.8827676,36.3730219 C7.46828108,35.6836229 0.991524324,31.7597106 0.620497297,22.0541723 C0.470010811,18.1136078 1.55909189,14.2882762 4.0524973,10.3517083 C6.54395676,6.41380819 8.1792,4.64135348 11.7552,2.62111481 C15.3312,0.598877875 19.4352,0.0147204994 23.2356324,0.304467886 C26.0436324,0.519613647 28.1737946,1.39551667 29.6254703,2.93350912 C31.0784432,4.47216765 31.7154162,6.3751752 31.5396324,8.6458622 C31.3366054,11.2649121 30.2922811,13.7041189 28.4047135,15.9648146 C26.5210378,18.2241781 23.8246054,20.0392623 20.3199568,21.4067368 C16.8140108,22.7755434 12.7910919,23.4163181 8.25184865,23.3323912 C8.16038919,26.1599261 8.74157838,28.096904 9.99930811,29.1473215 C11.2557405,30.1984052 12.7074162,30.7878912 14.3556324,30.9131154 C15.9817946,31.0383395 23.2148757,30.1131462 29.5223351,29.7594545 L28.1219027,34.8536798 Z" id="Fill-1" fill="#101D28" mask="url(#mask-2)"></path>
                    </g>
                    <polyline id="Fill-4" fill="#101D28" points="90 0 79.234826 53 71 53 82.4122007 0"></polyline>
                    <path d="M108.689341,38.3838635 C102.568801,49.0405809 92.0840945,50.1615771 92.2486322,39.8741291 C92.4706275,26.0067467 103.157088,24.7347457 103.157088,24.7347457 C107.305788,23.7027698 116.079172,25.516146 108.689341,38.3838635 M116.106595,18.2342865 C109.829352,17.8834807 100.156234,16.9293151 92.1389404,24.6094579 C82.8451737,33.5128053 85.1108313,48.0943283 92.2479793,51.9749533 C99.3211404,55.8212891 107.423968,50.7141623 108.919171,45.792989 L107.561083,54 L115.558789,54 L120,18.9589776 C120,18.9589776 118.310224,18.3575961 116.106595,18.2342865" id="Fill-6" fill="#101D28"></path>
                    <g id="Group-10" transform="translate(116.000000, 18.000000)">
                        <mask id="mask-4" fill="white">
                            <use xlink:href="#path-3"></use>
                        </mask>
                        <g id="Clip-9"></g>
                        <polygon id="Fill-8" fill="#101D28" mask="url(#mask-4)" points="6.74634783 0.535294943 15.1698261 17.7937935 0.289173913 35.8144383 8.89917391 35.8144383 18.4606957 24.5362658 23.9656957 35.8144383 32.3011304 35.8144383 15.3563478 0.535294943"></polygon>
                        <polygon id="Path" fill="#338BDB" mask="url(#mask-4)" points="39.4476522 0.49413373 30.4378696 0.49413373 21.7717826 10.9291653 25.0561304 17.3562896"></polygon>
                    </g>
                    <path d="M14.7117075,24.0289726 L18.8873665,24.0289726 C21.8883114,24.0289726 24.4923935,23.4682092 26.700274,22.3460274 C28.9081546,21.2238455 30.6662572,19.6064101 31.9745819,17.4930659 C33.2822451,15.3803767 33.9364074,13.2617918 33.9364074,11.1366558 C33.9364074,9.29910758 33.2385902,7.92012756 31.8429557,7.00102591 C30.4473212,6.08192426 27.5720495,5.62204588 23.2171407,5.62204588 L18.4177454,5.62204588 L14.7117075,24.0289726 Z M0,53 L10.6293112,0 L28.0978928,0 C30.9460455,0 33.3351602,0.239110551 35.2658981,0.716021458 C37.1972976,1.19424256 38.8019465,2.28628992 40.0811679,3.99281865 C41.3603893,5.70000247 42,7.79500396 42,10.2778231 C42,13.8585855 40.7075498,17.2428186 38.123311,20.4298675 C35.5384107,23.6169163 33.3827837,26.0466726 29.0106775,27.717171 L41.7149202,53 L31.9659832,53 L20.753945,30.8898077 L13.5945384,30.8898077 L8.87848436,53 L0,53 Z" id="Fill-11" fill="#101D28"></path>
                </g>
            </g>
        </g>
    </g>
</svg>