<?xml version="1.0" encoding="UTF-8"?>
<svg width="48px" height="48px" viewBox="0 0 48 48" version="1.1" xmlns="http://www.w3.org/2000/svg" xmlns:xlink="http://www.w3.org/1999/xlink">
    <!-- Generator: Sketch 46 (44423) - http://www.bohemiancoding.com/sketch -->
    <title>report</title>
    <desc>Created with Sketch.</desc>
    <defs>
        <path d="M0,2.00433413 C0,0.897370957 0.889663696,0 2.00753254,0 L14.2222222,0 L14.2222222,8 L21.3333333,8 L21.3333333,24.6690063 C21.3333333,25.7722837 20.443827,26.6666667 19.3263451,26.6666667 L2.00698821,26.6666667 C0.898559227,26.6666667 0,25.7794189 0,24.6623325 L0,2.00433413 Z M4,14.6666667 C4,15.0374235 4.29610354,15.3333333 4.66136577,15.3333333 L14.1719676,15.3333333 C14.5435678,15.3333333 14.8333333,15.0348565 14.8333333,14.6666667 C14.8333333,14.2959099 14.5372298,14 14.1719676,14 L4.66136577,14 C4.2897655,14 4,14.2984768 4,14.6666667 Z M4,9.33333333 C4,9.70409012 4.29710311,10 4.66359838,10 L10.0030683,10 C10.3628904,10 10.6666667,9.70152317 10.6666667,9.33333333 C10.6666667,8.96257655 10.3695636,8.66666667 10.0030683,8.66666667 L4.66359838,8.66666667 C4.30377626,8.66666667 4,8.9651435 4,9.33333333 Z M4,20 C4,20.3707568 4.29603025,20.6666667 4.66120207,20.6666667 L16.6721313,20.6666667 C17.0297963,20.6666667 17.3333333,20.3681898 17.3333333,20 C17.3333333,19.6292432 17.0373031,19.3333333 16.6721313,19.3333333 L4.66120207,19.3333333 C4.30353705,19.3333333 4,19.6318102 4,20 Z" id="path-1"></path>
    </defs>
    <g id="后台配置及微信端入口" stroke="none" stroke-width="1" fill="none" fill-rule="evenodd">
        <g id="消息" transform="translate(-15.000000, -220.000000)">
            <g id="Group-5-Copy-3" transform="translate(0.000000, 208.000000)">
                <g id="Group-4">
                    <g id="report" transform="translate(15.000000, 12.000000)">
                        <circle id="Mask" fill="#4DAC40" cx="24" cy="24" r="24"></circle>
                        <g id="Group-5" transform="translate(5.000000, 8.000000)">
                            <g id="btn_ico_file">
                                <g id="Group-5" transform="translate(3.000000, 0.000000)">
                                    <g id="btn_ico_file">
                                        <rect id="Rectangle-190" fill="#D8D8D8" opacity="0" x="0" y="0" width="32" height="32"></rect>
                                        <g id="Group-2" transform="translate(5.333333, 2.666667)">
                                            <g id="Combined-Shape">
                                                <use fill="#FFFFFF" fill-rule="evenodd" xlink:href="#path-1"></use>
                                                <path stroke-opacity="0.84" stroke="#FFFFFF" stroke-width="1" d="M20.8333333,8.5 L13.7222222,8.5 L13.7222222,0.5 L2.00753254,0.5 C1.16913671,0.5 0.5,1.17017808 0.5,2.00433413 L0.5,24.6623325 C0.5,25.4992396 1.17065059,26.1666667 2.00698821,26.1666667 L19.3263451,26.1666667 C20.16473,26.1666667 20.8333333,25.4990908 20.8333333,24.6690063 L20.8333333,8.5 Z M3.5,14.6666667 C3.5,14.0217368 4.01416207,13.5 4.66136577,13.5 L14.1719676,13.5 C14.8148512,13.5 15.3333333,14.0212478 15.3333333,14.6666667 C15.3333333,15.3115965 14.8191713,15.8333333 14.1719676,15.8333333 L4.66136577,15.8333333 C4.01848212,15.8333333 3.5,15.3120856 3.5,14.6666667 Z M3.5,9.33333333 C3.5,8.69104175 4.02558729,8.16666667 4.66359838,8.16666667 L10.0030683,8.16666667 C10.6468092,8.16666667 11.1666667,8.68753874 11.1666667,9.33333333 C11.1666667,9.97562492 10.6410794,10.5 10.0030683,10.5 L4.66359838,10.5 C4.01985743,10.5 3.5,9.97912793 3.5,9.33333333 Z M3.5,20 C3.5,19.3583084 4.02475512,18.8333333 4.66120207,18.8333333 L16.6721313,18.8333333 C17.3149522,18.8333333 17.8333333,19.3546086 17.8333333,20 C17.8333333,20.6416916 17.3085782,21.1666667 16.6721313,21.1666667 L4.66120207,21.1666667 C4.01838117,21.1666667 3.5,20.6453914 3.5,20 Z"></path>
                                            </g>
                                            <path d="M14,0.666666667 L20.6666667,8" id="Path-532" stroke="#FFFFFF" stroke-linecap="round" stroke-linejoin="round"></path>
                                        </g>
                                    </g>
                                </g>
                            </g>
                        </g>
                    </g>
                </g>
            </g>
        </g>
    </g>
</svg>