<?xml version="1.0" encoding="UTF-8"?>
<svg width="24px" height="24px" viewBox="0 0 24 24" version="1.1" xmlns="http://www.w3.org/2000/svg" xmlns:xlink="http://www.w3.org/1999/xlink">
    <!-- Generator: Sketch 47.1 (45422) - http://www.bohemiancoding.com/sketch -->
    <title>profile_0</title>
    <desc>Created with Sketch.</desc>
    <defs></defs>
    <g id="首页-工程师" stroke="none" stroke-width="1" fill="none" fill-rule="evenodd">
        <g id="消息_空页面" transform="translate(-301.000000, -625.000000)">
            <g id="tab" transform="translate(0.000000, 619.000000)">
                <g id="profile" transform="translate(301.000000, 6.000000)">
                    <g id="profile_0">
                        <rect id="Rectangle-126" fill="#F3F3F3" opacity="0" x="0" y="0" width="24" height="24"></rect>
                        <g id="iconfont-wo-2" transform="translate(4.000000, 1.500000)" stroke-opacity="0.48" stroke="#000000">
                            <path d="M7.90666739,0.5 C8.28457374,0.5 8.65922668,0.543274029 9.03073765,0.629708363 C9.40218177,0.716256444 9.75076299,0.832632205 10.0765481,0.979017671 C10.4024225,1.12540314 10.6924203,1.29176474 10.9465416,1.47801148 C11.2006407,1.66437197 11.3994766,1.8506187 11.5427374,2.03697919 C11.8816253,2.46278026 12.1292176,2.93176434 12.2856702,3.44411348 C12.4420114,3.95646261 12.5528274,4.44542285 12.6179399,4.91119892 C12.6831415,5.44343319 12.7156754,5.98237925 12.7156754,6.52799161 C12.8069488,6.59444978 12.8786126,6.68097512 12.9307338,6.78743108 C12.9828549,6.88059995 13.0252382,7.00038849 13.0577722,7.14666021 C13.0904175,7.29306842 13.0936709,7.47267163 13.0676215,7.68562904 C13.0415498,7.96504462 12.9861975,8.1879446 12.901431,8.35430621 C12.8167535,8.52057681 12.7222714,8.65037617 12.6179176,8.74345402 C12.5007063,8.84997824 12.376899,8.92319371 12.2465181,8.96303222 C12.1814279,9.18925397 12.1162263,9.40221139 12.0510247,9.60181345 C11.9859345,9.77479584 11.910995,9.94447922 11.8262285,10.1107498 C11.7415511,10.2771114 11.6470689,10.4068425 11.5427152,10.5000114 C11.2951229,10.6996134 11.0931227,10.8692968 10.9367592,11.0089477 C10.7803066,11.1487124 10.6760865,11.3848767 10.6239653,11.7175999 C10.5848132,11.917202 10.5718442,12.1201031 10.5848132,12.3263259 C10.5978936,12.5325716 10.6532681,12.7388854 10.7510037,12.9451083 C10.8487393,13.1513311 10.9986182,13.3476342 11.2005961,13.5338582 C11.4026855,13.7202186 11.6860874,13.8865802 12.0510024,14.032852 C12.3768767,14.1659959 12.7319647,14.2857617 13.1164893,14.3921948 C13.5009693,14.4986053 13.8756222,14.6217156 14.2405595,14.7614803 C14.6054746,14.9011312 14.9280286,15.0741364 15.2081771,15.2803365 C15.4884371,15.4866731 15.6871838,15.7694105 15.8045066,16.1286396 C15.8697082,16.3416197 15.918576,16.6043582 15.9511322,16.9171053 C15.9836885,17.2298524 16,17.5458302 16,17.8651981 C16,18.1845887 15.9771817,18.4839804 15.931545,18.763396 C15.8859306,19.0428116 15.8174756,19.255769 15.7263137,19.4021772 C15.6611344,19.4952323 15.4753789,19.5884012 15.1691587,19.6815928 C14.8628493,19.7747617 14.484943,19.8645178 14.0352391,19.9510886 C13.585669,20.0375229 13.0839553,20.1140374 12.5300314,20.1806094 C11.9761075,20.2470675 11.4189302,20.3036969 10.8584995,20.3502928 C10.2982025,20.3967748 9.76059008,20.4334281 9.2457069,20.460025 C8.73093513,20.4866219 8.2845738,20.5 7.90666746,20.5 C7.52869427,20.5 7.08883971,20.4866219 6.58710382,20.460025 C6.08530108,20.4334281 5.56727592,20.3967748 5.03291694,20.3502928 C4.49855795,20.3036969 3.96743007,20.2505031 3.43968931,20.1905292 C2.91181482,20.1306918 2.43291955,20.0674416 2.00280289,20.0009834 C1.57266396,19.9344115 1.20786034,19.8678396 0.908035483,19.8013814 C0.608322047,19.7348094 0.419313164,19.6682375 0.341142555,19.6017793 C0.210850781,19.4952324 0.109861829,19.1692437 0.0381534441,18.6236313 C-0.033510389,18.0781555 -0.00422982186,17.3728478 0.126084249,16.5079814 C0.191285859,16.0155856 0.383525843,15.6397021 0.702826499,15.3801489 C1.02210488,15.1207094 1.39352672,14.9144866 1.81704743,14.7614803 C2.24067956,14.6083603 2.68053412,14.4720084 3.13661107,14.3522199 C3.59279944,14.2324313 3.99684436,14.0594489 4.34870126,13.8332272 C4.62236525,13.6602448 4.83093907,13.4939742 4.97428899,13.3342334 C5.11768349,13.1746063 5.22190354,13.0149792 5.28699373,12.8552157 C5.35219534,12.6955886 5.38472928,12.529227 5.38472928,12.3562219 C5.38472928,12.1832395 5.37824478,11.9903492 5.36525348,11.7774145 C5.33920404,11.4713793 5.23489484,11.2285259 5.0524596,11.0489 C4.86993522,10.8692968 4.66795734,10.6862581 4.44641451,10.4999886 C4.34217216,10.406797 4.25092113,10.2770886 4.17275052,10.110727 C4.09455761,9.94445643 4.0228715,9.77477307 3.95769219,9.60179068 C3.89249058,9.40218862 3.82740042,9.18925395 3.76219881,8.96300945 C3.67094776,8.93641252 3.57978585,8.88983946 3.48853482,8.82335854 C3.41034191,8.7567866 3.32559765,8.66359498 3.23432435,8.54382919 C3.14318472,8.42417716 3.06501411,8.251172 2.9998125,8.02497301 C2.92161959,7.79875125 2.89222762,7.5924374 2.91179257,7.40619066 C2.93135751,7.21983018 2.96725626,7.06020313 3.01935515,6.92717299 C3.07147631,6.78076478 3.15615372,6.64102285 3.27347649,6.50799273 C3.26050747,6.00235538 3.28655691,5.49664978 3.3516471,4.99101244 C3.40376826,4.56521137 3.49827272,4.10616986 3.63516041,3.61379684 C3.77193671,3.12140107 3.97727941,2.68226742 4.2509434,2.29641864 C4.49855795,1.92381141 4.77556449,1.62112068 5.08178472,1.38827814 C5.38809408,1.15534459 5.70079884,0.972419628 6.02009949,0.839389508 C6.33951157,0.70624562 6.65878995,0.61648953 6.97809061,0.569893723 C7.2973912,0.523297915 7.60684254,0.5 7.90666739,0.5 L7.90666739,0.5 L7.90666739,0.5 Z" id="Shape"></path>
                        </g>
                    </g>
                </g>
            </g>
        </g>
    </g>
</svg>