<?xml version="1.0" encoding="UTF-8"?>
<svg width="40px" height="40px" viewBox="0 0 40 40" version="1.1" xmlns="http://www.w3.org/2000/svg" xmlns:xlink="http://www.w3.org/1999/xlink">
    <!-- Generator: Sketch 45.2 (43514) - http://www.bohemiancoding.com/sketch -->
    <title>location</title>
    <desc>Created with Sketch.</desc>
    <defs></defs>
    <g id="微信月报" stroke="none" stroke-width="1" fill="none" fill-rule="evenodd">
        <g id="尾页" transform="translate(-53.000000, -360.000000)">
            <g id="Group-2-Copy-2" transform="translate(53.000000, 360.000000)">
                <g id="location">
                    <circle id="Oval" fill="#3259A4" cx="20" cy="20" r="20"></circle>
                    <g id="位置" transform="translate(11.000000, 9.000000)" fill-rule="nonzero" fill="#FFFFFF" opacity="0.479999989">
                        <path d="M15.4039793,2.71161323 L15.3214945,2.62878949 C13.6964395,1.00423161 11.4642774,0 8.99985153,0 C6.53829552,0 4.30759312,1.00205202 2.68295873,2.62400444 L2.59131993,2.71639825 C0.989916856,4.36227585 0,6.62001197 0,9.1133423 C0,11.6088522 0.991376568,13.868818 2.59604537,15.5147206 L2.67820858,15.5975694 L9.00017318,22 L15.3265416,15.5942625 L15.3996003,15.5195308 C17.0068174,13.8729266 18,11.6115078 18,9.11339244 C18.0000247,6.61818314 17.0086729,4.35824242 15.4039793,2.71161323 Z M9,11 C7.34313054,11 6,9.6566925 6,8.00034173 C6,7.31569067 6.22858087,6.68578623 6.61373653,6.18123578 C7.16197232,5.46335495 8.02679897,5 9,5 C10.656893,5 12,6.34366102 12,8.00036529 C12,9.6566925 10.656893,11 9,11 Z" id="Shape"></path>
                    </g>
                </g>
            </g>
        </g>
    </g>
</svg>