<?xml version="1.0" encoding="UTF-8"?>
<svg width="265px" height="124px" viewBox="0 0 265 124" version="1.1" xmlns="http://www.w3.org/2000/svg" xmlns:xlink="http://www.w3.org/1999/xlink">
    <!-- Generator: Sketch 45.2 (43514) - http://www.bohemiancoding.com/sketch -->
    <title>星球</title>
    <desc>Created with Sketch.</desc>
    <defs></defs>
    <g id="微信月报" stroke="none" stroke-width="1" fill="none" fill-rule="evenodd" opacity="0.699999988">
        <g id="月报无数据页面" transform="translate(-66.000000, -210.000000)" fill-rule="nonzero">
            <g id="星球" transform="translate(66.000000, 210.000000)">
                <path d="M129.85,37.8062467 L147.40625,37.8062467 C151.05,37.8062467 154.3625,40.7534049 154.3625,44.6829492 C154.3625,46.6477213 153.7,47.9575694 152.375,49.2674175 L184.175,49.2674175 C187.81875,49.2674175 191.13125,52.2145757 191.13125,56.1441199 C191.13125,60.0736642 188.15,63.0208224 184.175,63.0208224 L146.08125,63.0208224 L146.08125,64.0032084 L168.275,64.0032084 C171.25625,64.0032084 174.2375,65.6405185 175.89375,68.2602147 L249.7625,68.2602147 C253.40625,68.2602147 256.71875,71.2073729 256.71875,75.1369172 C256.71875,78.7389994 253.7375,82.0144055 249.7625,82.0144055 L230.88125,82.0144055 L236.18125,82.0144055 C241.15,82.0144055 244.79375,85.6157018 244.79375,90.5284181 C244.79375,95.4403484 241.15,99.0424306 236.18125,99.0424306 L225.25,99.0424306 L225.25,101.661341 L258.04375,101.661341 C261.6875,101.661341 265,104.608499 265,108.538829 C265,112.468374 262.01875,114.433146 258.04375,114.433146 L157.0125,114.433146 C154.69375,117.70698 150.71875,120 146.08125,120 L13.25,120 C5.63125,120 0,114.105684 0,106.901519 C0,101.006417 4.30625,95.7678104 9.9375,94.1297144 L26.16875,94.1297144 C29.8125,94.1297144 33.125,91.1833421 33.125,87.2530119 C33.125,83.6509297 30.14375,80.3763095 26.16875,80.3763095 L23.85,80.3763095 C20.5375,79.3939234 18.21875,75.7918412 18.21875,72.189759 C18.21875,67.2778286 21.8625,63.6757464 26.83125,63.6757464 L58.63125,63.6757464 C59.29375,63.6757464 59.625,64.0032084 60.61875,64.0032084 L77.18125,64.0032084 C80.825,64.0032084 84.1375,61.0560502 84.1375,57.126506 C84.1375,53.5244237 81.15625,50.2498035 77.18125,50.2498035 L60.61875,50.2498035 C59.95625,50.2498035 59.625,50.2498035 58.63125,50.5772655 L42.4,50.5772655 C38.75625,50.5772655 35.44375,47.6301074 35.44375,43.7005631 C35.44375,40.0984809 38.425,36.8238606 42.4,36.8238606 L63.26875,36.8238606 C63.6,37.1513227 63.93125,37.1513227 64.925,37.1513227 L89.10625,37.1513227 C90.7625,37.1513227 91.75625,36.1689366 91.75625,34.5316265 C91.75625,32.8943164 90.7625,31.9119303 89.10625,31.9119303 L82.8125,31.9119303 C82.15,31.5844683 81.15625,30.2746202 81.15625,29.6196962 C81.15625,27.9823861 82.15,27 83.80625,27 L117.925,27 C119.58125,27 120.575,27.9823861 120.575,29.6196962 C120.575,30.6020822 120.24375,31.5844683 118.91875,31.9119303 L103.35,31.9119303 C101.69375,31.9119303 100.7,32.8943164 100.7,34.5316265 C100.7,36.1689366 101.69375,37.1513227 103.35,37.1513227 L127.53125,37.1513227 C129.1875,38.1337087 129.51875,37.8062467 129.85,37.8062467 Z" id="Shape" fill="#FFFFFF" opacity="0.200000003"></path>
                <path d="M173.896328,69.0250974 L176.875838,67.5721289 C178.332488,66.8456446 179.127024,66.1191603 179.855349,65.392676 C181.511427,64.2038836 182.372175,63.0811351 183.430762,61.4300345 C190.647798,52.7782671 192.038236,40.6922104 187.006174,30.3232984 C179.92156,15.7936127 162.309342,9.98173847 148.073903,16.9163612 C143.306686,19.2279021 139.598851,22.8603235 136.884185,26.4267009 C135.693176,27.7475814 135.228902,29.0684619 134.765422,30.3893424 C134.434366,31.2479147 133.706041,32.7669273 133.374984,33.6254997 C133.043927,34.484072 132.779082,36.1351726 132.448025,36.993745 C131.388644,43.0697953 132.18318,49.2779338 135.096479,55.1558521 C142.114882,70.2138899 159.329832,76.0918082 173.896328,69.0250974 L173.896328,69.0250974 Z" id="Shape" fill="#FFFFFF"></path>
                <path d="M107.925314,27.487584 L105.278564,32.3949551 L102.962657,27.487584 L98,25.1974775 L102.962657,22.580213 L105.278564,18 L107.925314,22.580213 L112.887971,25.1974775 L107.925314,27.487584 Z M177.071667,119.419002 L174.424917,124 L172.10901,119.419002 L167.146353,116.802522 L172.10901,114.512416 L174.424917,109.60426 L177.071667,114.512416 L181.70348,116.802522 L177.071667,119.419002 Z M226.698237,48.4257006 L224.051486,53.3330716 L221.73558,48.4257006 L216.772923,46.1355941 L221.73558,43.5183295 L224.051486,38.9381165 L226.698237,43.5183295 L231,46.1355941 L226.698237,48.4257006 L226.698237,48.4257006 Z M215.118704,105.678363 L212.472747,110.585734 L210.487685,105.678363 L205.525028,103.061098 L210.487685,100.770992 L212.472747,95.8636208 L215.118704,100.770992 L219.750517,103.061098 L215.118704,105.678363 Z M166.81551,83.7587722 L165.822978,86.3760367 L164.168759,83.7587722 L161.522009,82.7772979 L164.168759,81.1415076 L165.822978,78.524243 L166.81551,81.1415076 L169.46226,82.7772979 L166.81551,83.7587722 Z M108.256158,72.3082397 L106.601939,74.9255043 L105.609407,72.3082397 L102.962657,70.6724493 L105.609407,69.6909751 L106.601939,67.0737106 L108.256158,69.6909751 L110.902908,70.6724493 L108.256158,72.3082397 Z M214.457016,30.4320067 L213.133641,33.0492712 L211.810266,30.4320067 L209.163515,28.7962163 L211.810266,27.8147421 L213.133641,25.1974775 L214.457016,27.8147421 L217.103767,28.7962163 L214.457016,30.4320067 Z" id="Shape" fill="#FFF34C"></path>
                <path d="M136.69228,119.202867 L138.937865,119.735086 C139.598332,119.867144 140.919264,119.867144 141.57973,120 C142.636476,119.933572 143.957409,119.867144 145.014155,119.800717 C152.807656,118.206451 158.553712,112.360808 160.469064,104.256623 C162.979628,93.2296155 156.374173,82.2026085 145.14704,79.5454984 C141.646569,78.7483654 138.014005,78.8147931 134.579581,79.8112094 C133.522835,79.9440649 132.400042,80.3426314 131.541436,81.1397645 C130.814923,81.3390477 130.352597,81.8704698 129.163758,82.601175 C128.371198,83.1325971 127.974919,83.3318803 127.116313,84.1954411 C123.615842,86.9854067 121.172117,90.8382164 120.181417,95.2224481 C118.794174,105.784461 125.464883,116.545757 136.69228,119.202867 L136.69228,119.202867 Z" id="Shape" fill="#78DAFE"></path>
                <path d="M135.893113,120 C133.251852,119.73851 130.61059,119.47702 127.837266,118.16957 C120.177608,114.7702 114.763022,107.44848 115.027148,99.146172 C114.895085,98.100212 115.291274,96.531272 115.225242,95.485312 L115.885558,92.6089219 C116.017621,91.9551969 116.281747,91.0399819 116.809999,90.1247668 C121.366175,79.4036766 134.04423,74.3046215 144.939434,78.4230891 C149.297515,80.1227741 152.665124,83.1952817 155.438448,87.1830043 C155.702575,87.5752393 155.372417,88.8173168 154.976228,89.0788068 C154.580038,89.3402968 153.259408,89.0134343 153.061313,88.6211993 C151.146399,85.1564567 148.042916,82.4761842 144.014993,80.8418716 C134.506451,76.6580315 122.884901,81.3648516 119.319198,90.9746094 C119.187135,91.6283344 118.658882,92.4781769 118.460788,93.1319019 L117.866504,95.6814295 C117.668409,96.662017 117.668409,97.969467 117.470315,98.9500545 C117.734441,106.40252 122.290617,113.135887 129.157897,115.685415 C131.336937,116.535257 133.912167,117.12361 136.223271,117.319727 C136.883586,117.450472 137.741996,118.038825 137.609933,118.627177 C137.411839,119.346275 136.949618,119.869255 135.893113,120 L135.893113,120 Z M140.119132,119.280902 C139.458816,119.150157 139.128659,119.084785 138.666438,118.300315 C138.468343,117.581217 139.062627,116.731375 139.656911,116.86212 C139.987069,116.927492 140.383258,116.666002 140.713416,116.796747 C141.439763,116.60063 142.298173,117.188982 142.562299,117.581217 C142.760393,118.300315 142.166109,119.150157 141.76992,119.411647 C141.175636,119.150157 140.779447,119.411647 140.119132,119.280902 C140.449289,119.346275 140.119132,119.280902 140.119132,119.280902 L140.119132,119.280902 Z M145.137529,118.104197 C144.807371,118.038825 144.147056,117.90808 144.279119,117.581217 C144.014993,117.188982 144.34515,115.946905 145.071497,115.750787 C149.429579,113.593495 152.92925,109.998007 154.910196,105.552677 C156.296858,102.545542 156.825111,98.9500545 156.494953,95.877547 C156.296858,95.1584494 156.891142,94.3086069 157.485426,94.4393519 C158.211773,94.2432344 159.070183,94.8315869 158.93812,95.4199395 C159.136215,98.8193095 158.93812,102.807032 157.155268,106.075657 C154.976228,110.978595 151.278462,115.162435 146.06197,117.319727 L145.137529,118.104197 Z M156.164795,94.1124894 C155.834638,94.0471169 155.174322,93.9163719 154.712102,93.1319019 C154.447975,92.7396669 154.514007,92.4128044 154.315912,92.0205694 C154.117818,91.3014719 154.381944,90.3208843 155.108291,90.1901393 C155.834638,89.9940218 156.825111,90.2555118 156.957174,90.9746094 C157.2213,91.3668444 157.155268,91.6937069 157.2213,92.7396669 C157.419395,93.0665294 157.287331,93.6548819 156.164795,94.1124894 C156.494953,94.1778619 156.164795,94.1124894 156.164795,94.1124894 L156.164795,94.1124894 Z" id="Shape" fill="#33BFE5"></path>
                <path d="M139.832385,89.4758771 C139.30119,88.6710217 137.704414,88.2685939 136.907223,88.8051643 C136.109234,89.3417346 135.71024,90.9506406 136.242232,91.7563009 L140.696873,99 C140.696873,99 141.162366,98.3963584 142.691845,97.7256455 C143.822329,97.3224129 144.686817,96.4504862 144.686817,96.4504862 L139.832385,89.4758771 M148.079068,84.9150296 C147.547076,84.1101741 145.9503,83.7077464 145.153109,84.2443167 C144.35512,84.780887 143.956125,86.3905979 144.488118,87.1954533 L149.010055,94.4391524 C149.010055,94.4391524 149.475549,93.8355108 151.005028,93.164798 L153,91.8904435 L148.079068,84.9150296" id="Shape" fill="#2CA5FE"></path>
                <path d="M160.885012,95.7650587 C166.185733,99.3443342 169.631202,103.586438 168.903148,106.768017 C167.312932,113.52887 152.801411,115.981337 136.701264,112.2687 C120.599526,108.556859 108.606644,100.006368 110.130601,93.1792311 C110.925709,89.5999557 113.249546,86.9279603 119.610412,86 C119.41084,86.9942432 118.68199,88.5195448 118.285231,90.1103338 C115.501557,90.5080311 116.293485,91.5229545 116.027654,92.5171977 C115.298805,95.7650587 125.237658,101.133972 138.158962,104.116701 C151.079472,107.099431 162.343505,106.966865 163.138613,103.453873 C163.337391,102.459629 162.078469,100.802557 160.355735,99.410617 C160.620771,98.4163739 160.554512,97.0907163 160.885012,95.7650587 L160.885012,95.7650587 Z" id="Shape" fill="#F3FDFF"></path>
                <path d="M150.07531,113.998789 C144.548945,113.931612 139.041894,113.332847 133.630397,112.210782 C129.769349,111.416907 126.051449,110.224107 122.261975,109.098325 C121.547025,108.96588 121.403876,108.237433 121.6186,107.244095 C121.833058,106.250758 122.548008,106.449425 123.620566,106.648093 C127.052698,107.708447 130.770597,108.833435 134.631911,109.694327 C153.078524,113.667677 166.305764,110.687665 167.593045,105.523105 C168.236421,102.939633 166.09157,99.7617481 161.73003,96.7817359 L161.515572,97.7750733 C164.089339,99.3644131 164.73298,101.15242 164.304063,102.807983 C163.731997,105.059548 160.443014,106.383997 154.579999,106.516442 C153.793475,106.71511 152.93564,105.854217 153.00695,105.523105 C153.149834,104.86088 153.7219,103.999988 154.079242,104.06621 C159.51334,104.198655 161.01508,102.807983 161.08639,102.47687 C161.157964,102.145758 160.657473,101.351088 158.512092,99.5622859 L157.868982,99.0995231 L158.011866,98.4372982 C158.440518,96.8471637 158.297899,95.7883985 158.726816,94.1990586 L158.941274,91.8812714 L160.871931,92.9408313 C167.878548,97.1790708 170.810188,101.549755 169.809205,105.721772 C169.451597,111.350684 161.443732,114.065807 150.07531,113.998789 L150.07531,113.998789 Z M117.757551,106.780538 L117.042336,106.648093 C107.604306,101.880073 103.028572,96.5160512 104.172439,92.0137164 C105.244997,87.8416993 110.608315,85.2582274 118.615385,84.1986675 L120.832605,84 L119.902401,86.1853423 C119.687678,87.1786797 118.901418,88.701797 118.687755,89.6297066 L118.544606,90.2911369 L117.758081,90.490599 C114.754337,90.887934 113.754149,91.6826039 113.681779,92.0137164 C113.610204,92.3448288 114.253845,94.1990586 119.258761,96.2519559 C123.906334,98.2386307 129.912233,100.556418 136.562303,102.013313 C138.992656,102.543093 141.424599,103.072873 143.925997,103.27154 C144.640947,103.403985 145.570621,103.999988 145.427737,104.59599 C145.284588,105.258215 144.712522,106.119107 143.997571,105.986662 C141.566423,105.456883 139.063965,105.258215 136.275739,104.662213 C129.6262,103.27154 122.833511,101.086198 118.257513,98.7684107 C113.109713,95.987066 110.67883,93.7355012 111.250631,91.4839364 C111.751122,89.5634841 113.824663,88.6363692 117.256794,88.0403668 L117.471253,87.0470294 C111.751387,87.8416993 108.319256,89.8283741 107.67588,92.4110513 C106.889355,95.6559535 111.107747,100.62264 119.115877,103.999988 C119.830827,104.131638 119.973711,104.86088 119.40191,105.7872 C118.543811,106.58187 118.114894,106.84676 117.757551,106.780538 L117.757551,106.780538 Z M151.218912,106.449425 C150.146619,106.250758 149.074327,106.31698 148.001504,106.118313 C147.286819,105.985868 146.357145,105.389865 146.500294,104.793863 C146.643709,104.131638 147.286819,103.270746 147.930195,103.403191 C149.002752,103.601858 150.07531,103.535636 150.79026,103.668081 C151.50521,103.800526 152.434619,104.330305 152.291735,104.99253 C152.434619,105.985868 151.934127,106.58187 151.218912,106.449425 L151.218912,106.449425 Z" id="Shape" fill="#C2F2FF"></path>
                <path d="M47.3375266,74 C48.9881206,74 49.978477,74 51.6290709,73.6714286 C53.2796649,73.6714286 54.6001401,73.3428571 56.250734,73.0142857 C58.2314468,72.6857143 60.5422784,72.0285714 62.1928723,70.7142857 C73.7470301,65.4571429 82,53.3 82,39.5 C82,20.4428571 66.4844167,5 47.3375266,5 C41.0652695,4.99973714 35.1231312,6.64259429 30.5014681,9.59973714 C28.5207553,10.25688 27.2002801,11.5711657 25.5496862,12.55688 C24.5593298,13.2140229 23.2388546,14.5283086 22.578617,15.5140229 C21.5882606,16.4997371 20.5979043,17.8140229 19.9376667,18.7997371 C15.3160036,24.3854514 13.005172,31.6140229 13.005172,39.4997371 C12.6750532,58.2283086 28.1906365,74 47.3375266,74 L47.3375266,74 Z" id="Shape" fill="#FFDA00"></path>
                <path d="M44.5,71 C24.2590909,71 8,54.9677419 8,35.0092166 C8,27.156682 10.6545455,19.6313364 15.3,13.7419355 C15.6318182,13.0875576 16.2954545,13.0875576 17.2909091,13.4147465 C17.9545455,14.0691244 17.9545455,15.0506912 17.6227273,15.3778802 C12.9772727,20.9400922 10.6545455,28.1382488 10.6545455,35.3364055 C10.6545455,53.6589862 25.9181818,68.7096774 44.5,68.7096774 C45.4954545,68.7096774 47.1545455,68.7096774 48.15,68.3824885 C49.8090909,68.3824885 51.1363636,68.0552995 52.7954545,67.7281106 C54.7863636,67.4009217 56.4454545,66.7465438 58.4363636,65.764977 C70.05,60.5299539 78.0136364,48.4239631 78.0136364,35.3364055 C78.0136364,30.1013825 77.0181818,25.1935484 74.6954545,20.6129032 C74.3636364,19.9585253 74.6954545,18.9769585 75.3590909,18.6497696 C76.0227273,18.3225806 77.0181818,18.6497696 77.35,19.3041475 C80.0045455,24.2119816 81,29.4470046 81,35.0092166 C81,48.7511521 72.7045455,61.5115207 59.7636364,67.4009217 C57.7727273,68.0552995 55.45,69.0368664 53.7909091,69.6912442 C52.1318182,70.0184332 50.4727273,70.3456221 48.8136364,70.3456221 C47.1545455,71 45.8272727,71 44.5,71 L44.5,71 Z M73.7,17.9953917 C73.3681818,17.9953917 73.0363636,17.6682028 72.7045455,17.3410138 C72.0409091,16.6866359 71.7090909,16.0322581 71.3772727,15.3778802 C71.0454545,15.0506912 71.0454545,14.3963134 71.7090909,14.0691244 C72.3727273,13.7419355 73.3681818,13.7419355 73.7,14.3963134 C74.0318182,15.0506912 74.3636364,15.3778802 75.3590909,16.359447 C75.6909091,17.0138249 75.6909091,17.9953917 75.0272727,18.3225806 C74.0318182,17.6682028 74.0318182,17.9953917 73.7,17.9953917 Z M19.2818182,12.7603687 C18.95,12.7603687 18.6181818,12.7603687 18.6181818,12.4331797 C18.2863636,12.1059908 18.2863636,11.4516129 18.6181818,10.4700461 C19.2818182,9.48847926 20.6090909,8.50691244 21.6045455,7.52534562 C22.2681818,7.19815668 23.2636364,7.19815668 23.5954545,7.85253456 C23.9272727,8.1797235 23.9272727,9.48847926 23.2636364,9.8156682 C22.2681818,10.4700461 21.2727273,11.4516129 20.2772727,12.4331797 C20.2772727,12.7603687 19.9454545,12.7603687 19.2818182,12.7603687 L19.2818182,12.7603687 Z M68.3909091,11.4516129 L67.3954545,11.4516129 C61.0909091,5.23502304 52.7954545,2.29032258 44.5,2.29032258 C38.8590909,2.29032258 33.2181818,3.92626728 27.9090909,6.87096774 C27.2454545,7.19815668 26.25,6.87096774 25.9181818,6.5437788 C25.5863636,5.88940092 25.9181818,4.9078341 26.25,4.58064516 C31.5590909,1.6359447 37.8636364,0 44.1681818,0 C53.1272727,0 62.0863636,3.2718894 68.7227273,9.48847926 C69.0545455,9.8156682 69.0545455,10.4700461 68.7227273,11.4516129 L68.3909091,11.4516129 L68.3909091,11.4516129 Z" id="Shape" fill="#FFAA00"></path>
                <path d="M46.0948923,28.5138729 C46.3347445,26.9237927 47.8512207,25.8362354 49.1757616,26.0202796 C50.8793547,25.9326273 51.7769265,26.7065897 51.537342,28.2964129 L50.3386165,36.2463 C50.0987643,37.8363803 48.9613402,38.651984 47.3056641,38.4216717 C45.6497202,38.1913594 44.8003329,37.0994323 45.0399174,35.5093521 L46.0948923,28.5138729 L46.0948923,28.5138729 Z M66.9582855,31.4146255 C67.1981377,29.8245453 66.3963996,28.4146536 64.7404558,28.1843413 C63.4635641,27.6820754 62.0431894,28.1339605 61.8515218,29.405819 L60.6525285,37.3557062 C60.4126763,38.9457864 61.2623313,40.0377135 62.9182751,40.2680258 C64.5742189,40.4983381 65.7113753,39.6824773 65.9512275,38.0926541 L66.9582855,31.4146255 L66.9582855,31.4146255 Z M57.6974745,47.9832309 C57.035204,47.8912088 56.7519857,47.5272331 56.8478195,46.8910467 L56.9915702,45.9371528 C57.2314224,44.3470726 56.4296843,42.9371809 54.442873,42.6608575 C52.4557939,42.3845342 51.3186375,43.2003949 51.0308684,45.1081828 L50.88685,46.0620767 C50.7910162,46.698006 50.4119641,46.9699595 49.749426,46.8779374 C49.0871555,46.7859153 48.1416667,46.3299175 48.2854174,45.3757666 L48.4291681,44.4218727 C48.812771,41.8778985 51.4666713,39.9742234 54.1160208,40.3425688 C56.7651026,40.7109143 58.7476309,43.2592582 58.3642957,45.8032324 L58.2202773,46.7571263 C58.7390648,47.8032994 58.359745,48.07551 57.6974745,47.9832309 L57.6974745,47.9832309 Z" id="Shape" fill="#FB8D03"></path>
                <path d="M207.749868,90.6298682 L209.325555,90.2402808 C209.982091,90.1104183 210.310359,89.9805558 211.163856,89.4611059 C211.754739,89.0065872 212.67389,88.7468623 213.199119,88.2923436 C217.138336,84.9808504 218.845331,79.7863512 217.597912,74.851577 C215.825264,67.9039344 208.734672,63.6834038 201.709734,65.3716161 C199.477511,65.891066 197.442249,67.1247595 196.129176,68.7480405 C195.538294,69.2025592 195.341333,69.5921466 194.487836,70.1765278 L193.765646,71.3452901 L193.043456,72.5140524 C191.992998,75.111302 191.66473,77.838414 192.38692,80.6953886 C193.568685,88.0975499 200.72493,92.3180804 207.749868,90.6298682 L207.749868,90.6298682 Z" id="Shape" fill="#FF8080"></path>
                <path d="M203.3921,91.8656975 C198.051902,92.1994513 193.502844,88.8627141 190.601996,84.055858 C190.140497,83.5218519 189.810856,82.1868366 189.61307,81.5193289 L189.151572,79.5835567 C189.085643,79.2498029 188.887858,78.5822953 189.085643,77.9147876 C188.82193,74.1767448 189.876784,70.1716989 192.513919,67.0344129 C194.821412,64.0306285 198.843042,62.3618594 202.535031,62.0948564 C205.501808,61.6943518 208.798226,62.5621117 211.303504,64.6981362 C211.699074,64.9651392 211.896859,65.5658961 212.028716,66.2334038 C212.358358,66.166653 213.017642,65.9664007 213.676925,66.166653 C213.874711,66.3001545 214.072496,66.5004068 214.138424,66.7006591 C214.533994,66.9676622 214.599923,67.2346652 214.402138,67.6351698 C214.731779,67.5684191 215.12735,67.8354221 215.52292,68.0356744 C216.70963,70.1716989 217.698556,72.6414772 217.962269,75.3115078 C218.225983,79.0503516 217.105201,82.7883945 214.665851,85.457624 C214.402138,85.8589296 213.808782,85.9924312 213.08357,85.8589296 C213.149498,86.1926835 213.347284,86.8601911 212.819857,87.6612003 C212.490215,87.7279511 212.226501,88.1276546 212.226501,88.1276546 C211.633146,88.59491 210.64422,88.5289602 210.446435,87.8614526 C209.984937,87.2606957 210.050865,86.2586332 210.710149,86.0591819 C211.039791,85.9924312 210.973862,85.6586773 211.303504,85.5919266 C211.567218,85.191422 211.962788,85.458425 212.29243,85.3249235 C212.226501,84.9911697 212.160573,84.6574159 212.358358,84.2569113 C214.138424,81.7203822 215.391063,78.649847 214.995493,75.7120124 C214.863636,73.7094894 213.940639,71.5067142 213.215427,69.9714466 L212.951713,68.9701851 C212.622072,69.0369359 212.226501,68.8366836 212.160573,68.5029298 C212.094645,68.1691759 211.765003,68.2359267 211.699074,67.9689237 C211.303504,67.7019206 211.237576,67.4349175 211.435361,67.0344129 C211.105719,67.1011637 210.776077,67.1679145 210.380507,66.9676622 C208.007086,65.4991454 205.501808,65.0986408 202.798744,65.0986408 C199.831968,65.4991454 196.733334,66.6339084 194.623627,69.2371882 C192.513919,71.840468 191.26128,74.9110032 191.65685,77.9155886 L192.05242,79.517607 L192.44799,81.1196253 C192.579847,81.787133 192.843561,82.7216437 193.305059,83.3224006 C195.348839,87.5944495 200.029753,89.8639755 204.644739,89.3967202 C206.292948,89.3299694 207.611515,88.9962156 209.127868,88.2619572 C209.787152,88.1284556 210.776077,88.1952064 210.973862,88.8627141 C211.105719,89.5302217 211.039791,90.5982339 210.380507,90.7317355 C208.534513,91.5327446 206.952232,91.9332492 205.238094,92 C203.985455,91.7329969 203.655813,91.7997477 203.3921,91.8656975 Z" id="Shape" fill="#F76161"></path>
                <path d="M215.298618,68.001941 C219.720502,67.9362186 221.40425,69.5464177 221.932236,71.7809796 C222.791006,75.2642674 215.399199,80.8506723 204.773477,83.4795688 C194.212961,86.1084652 185.17199,85.3197963 184.116017,81.1792844 C183.521241,78.9447224 185.217397,76.480132 189.111295,74.5084597 C189.243291,75.1656838 189.176501,76.15152 189.375288,76.8087441 C187.593334,77.926025 187.481137,78.2874983 187.679132,79.2733345 C188.14112,81.1792844 195.598925,81.0478396 203.914707,78.9447224 C212.231282,76.8416053 218.896316,73.5554847 218.43512,71.6495348 C218.302331,70.9923107 218.070545,70.0393357 216.42138,70.1050582 C216.025391,69.5135565 215.827396,68.8563324 215.298618,68.001941 L215.298618,68.001941 Z" id="Shape" fill="#FFE9E9"></path>
                <path d="M194.900391,86.9131851 C188.373594,86.5160993 184.219675,84.7953942 183.296581,81.2878031 C182.571294,78.3758406 182.921542,76.4346205 187.274058,73.3241151 L189.05431,72.1990387 L189.318051,74.5153725 C189.449921,75.1771821 189.449921,76.5008015 189.647727,77.1626111 L189.779597,77.8244208 L189.18618,78.2876875 C187.735605,79.346583 189.098882,78.5082025 189.098882,78.5082025 C189.560429,79.0376502 194.901183,80.0965457 203.538698,77.9787548 L208.022294,76.8536784 C208.681647,76.7213164 209.73661,76.7874974 209.868481,77.4493071 C210.000351,78.1111167 209.934416,79.1038312 209.275064,79.3023741 L204.791468,80.4274505 C200.637548,81.486346 196.747369,82.0819747 193.648413,82.2143366 C189.890105,82.1481556 187.648307,81.353984 187.18676,79.3685551 C187.120825,79.0376502 186.923019,78.3758406 187.120825,77.7140309 C186.329602,78.5743835 185.999926,80.0303647 186.131796,80.6921744 C186.725214,82.9423272 190.153846,84.4644894 195.164923,84.1997656 C195.890211,84.3321275 196.285822,84.5968513 196.219887,85.6557468 C195.824276,86.3175565 195.560535,86.7146422 194.900391,86.9131851 L194.900391,86.9131851 Z M198.6587,86.9801603 C197.999347,87.111728 197.537801,86.5822803 197.27406,85.5895658 C197.142189,84.9277562 197.670462,84.4644894 198.6587,84.1997656 C200.966433,83.9350417 203.208231,83.405594 205.450029,82.8099653 C210.263301,81.6187079 214.878767,79.7656409 217.713982,77.3831261 C220.220312,75.0667923 221.801967,73.2799062 221.406355,71.691563 C221.142615,70.6988486 220.220312,69.5737721 218.43927,69.3752292 C219.230493,69.838496 219.296428,70.1694008 219.560169,71.1621153 C220.021716,73.0813633 218.373335,74.5373446 215.142508,76.7213164 C214.812832,76.7874974 214.15348,76.9860403 214.087544,76.6551355 C214.15348,76.9860403 213.955674,77.3831261 213.296322,77.515488 C212.636969,77.64785 212.439164,78.0449357 211.450135,78.3096596 C210.790783,78.4420215 209.735819,78.3758406 209.603949,77.7802119 C209.472078,77.1184022 209.538013,76.0595068 210.197366,75.9271448 C210.856718,75.7947829 211.186394,75.662421 212.043552,75.1329733 C212.373228,75.0667923 212.702905,75.0006113 213.098516,75.1991542 C213.032581,74.8682494 213.230386,74.4711636 213.560063,74.4049826 C215.933731,73.1475443 216.329342,72.0224679 216.329342,72.0224679 C216.329342,72.0224679 218.747056,71.757744 217.29648,71.4930201 L216.571193,71.3606582 L216.439322,70.6988486 C216.307452,70.0370389 215.977776,68.7796006 215.516229,68.1839719 L214.659071,66 L216.768999,66.1323619 C222.043817,66.8603526 222.131643,68.8457815 222.856931,71.757744 C223.516283,74.3388017 221.867902,77.4493071 218.505205,80.3612695 C215.406249,82.8761462 210.527042,85.1262991 205.384094,86.3837374 C203.208231,86.1851945 200.966433,86.7808232 198.6587,86.9801603 L198.6587,86.9801603 Z" id="Shape" fill="#FFB8B8"></path>
                <path d="M176.896328,69.0250974 L179.875838,67.5721289 C181.332488,66.8456446 182.127024,66.1191603 182.855349,65.392676 C184.511427,64.2038836 185.372175,63.0811351 186.430762,61.4300345 C193.647798,52.7782671 195.038236,40.6922104 190.006174,30.3232984 C182.92156,15.7936127 165.309342,9.98173847 151.073903,16.9163612 C146.306686,19.2279021 142.598851,22.8603235 139.884185,26.4267009 C138.693176,27.7475814 138.228902,29.0684619 137.765422,30.3893424 C137.434366,31.2479147 136.706041,32.7669273 136.374984,33.6254997 C136.043927,34.484072 135.779082,36.1351726 135.448025,36.993745 C134.388644,43.0697953 135.18318,49.2779338 138.096479,55.1558521 C145.114882,70.2138899 162.329832,76.0918082 176.896328,69.0250974 L176.896328,69.0250974 Z" id="Shape" fill="#ACE838"></path>
                <path d="M160.161189,70.9393295 C151.416698,71.1354301 142.870945,67.2787836 137.041284,60.6113609 C135.848854,58.9771886 134.987654,57.9313184 134.126454,56.2317792 L132.205316,52.3751327 C131.741593,51.5253632 131.476608,50.1526585 131.079131,49.3028889 C129.091747,41.524229 129.754208,33.222634 133.862264,26.5552112 C138.101223,19.4302202 144.527099,14.5277034 152.211652,12.2398623 C158.306297,10.4095894 165.395429,10.6056901 171.290541,12.8281643 C171.754264,12.9588981 172.284234,14.1355021 172.151741,14.5930703 C172.019249,15.0506386 170.826818,15.5735737 170.363095,15.4428399 C164.467188,13.2203656 158.505035,13.1549988 152.741621,14.8545379 C145.785776,17.142379 139.492392,21.5873276 136.047592,27.9932828 C132.602793,34.399238 131.476608,41.8510634 133.927716,49.0414213 C134.391439,49.8911909 134.656423,51.2638956 134.921408,51.8521976 L136.511315,55.0551752 C137.240023,56.4932468 138.233715,57.8659515 139.293653,59.1732893 C146.315745,67.4095174 157.577589,70.7432288 168.243219,67.8017188 C172.284234,66.5597478 176.060264,64.4680074 179.240079,61.7879649 C179.703802,61.1996629 180.896232,61.3303967 181.028725,61.6572311 C181.62494,62.1147993 181.426202,63.2914034 181.161217,63.4221371 C177.451433,66.2982803 173.874141,68.7822221 169.236911,69.8934592 C165.659619,70.8739626 162.811035,71.1354301 160.161189,70.9393295 L160.161189,70.9393295 Z M182.022417,60.8074615 C181.757432,60.9381953 181.558694,60.6767278 181.161217,60.4806271 C180.565002,60.0230589 180.432509,59.0425555 181.028725,58.7157211 C181.161217,58.2581528 181.757432,57.9966853 182.221155,57.4083833 C182.684878,56.8200812 183.67857,56.6893475 184.142293,56.8200812 C184.738509,57.2776495 184.871001,58.2581528 184.738509,58.7157211 C184.274786,59.3040231 184.142293,59.7615913 183.214847,60.1537926 C182.751124,60.8074615 182.48614,60.9381953 182.022417,60.8074615 Z M185.930939,55.2512759 L185.467216,55.1205421 C184.871001,54.6629739 184.473524,53.8132043 184.871001,53.2249023 C188.050816,46.9496809 188.84577,39.6939561 186.725893,33.0919002 C185.135986,28.3854841 182.684878,24.1366363 179.571309,20.8682918 C178.975094,20.4107235 178.842602,19.4302202 179.438817,19.1033857 C179.90254,18.5150837 180.962478,18.38435 181.227463,18.972652 C185.202232,22.502464 187.785831,27.0781463 188.912016,32.3728644 C190.766908,39.8246899 190.369431,47.2765153 186.792139,54.1400388 C187.12337,54.7283408 186.394662,55.4473766 185.930939,55.2512759 L185.930939,55.2512759 Z M176.656479,18.6458175 C176.325248,18.7765513 176.192756,18.5150837 176.192756,18.5150837 C175.464048,17.7960479 174.40411,17.2077459 173.079187,16.7501777 C172.482972,16.2926095 172.085495,15.4428399 172.482972,14.8545379 C172.946695,14.2662359 173.807895,13.8086677 174.40411,14.2662359 C175.464048,14.8545379 176.921464,15.6389406 177.517679,16.0311419 C178.113894,16.4887101 178.246387,17.4692135 178.113894,17.9267817 L176.656479,18.6458175 Z" id="Shape" fill="#9ACC21"></path>
                <path d="M144.019463,35.9955279 C143.303576,34.5523674 142.001963,34.0931799 140.505108,34.8147602 C139.073334,35.5363405 138.61777,36.8483046 139.334438,38.2914652 L144.020244,48 L146.363147,46.8192323 L148.70605,45.6384645 L144.019463,35.9955279 Z M159.248332,28.5173322 C158.532445,27.0741717 157.230833,26.6149842 155.799058,27.3365645 C154.367284,28.0581448 153.91172,29.3701089 154.627607,30.8788677 L159.314194,40.5874025 L161.657097,39.4066348 L164,38.225867 C163.934919,38.225867 159.249113,28.5173322 159.248332,28.5173322 L159.248332,28.5173322 Z" id="Shape" fill="#73AA13"></path>
                <path d="M182.491364,19.6299698 C191.177327,18.2536416 197.724232,19.0401149 199.539213,22.9069417 C202.780232,29.6575039 188.584459,43.6174042 167.64744,53.9726354 C146.645554,64.3278666 127.069176,67.080523 123.828422,60.2644215 C122.013441,56.463134 122.830248,51.9406507 129.830965,45.5833252 C130.220174,47.2218111 130.803456,48.401521 131.516475,49.8433886 C128.729003,52.3338873 129.986119,53.5791366 130.699138,55.0865437 C132.254912,58.2979762 147.488044,54.8243859 164.406422,46.5008773 C181.324799,38.1773687 193.705326,28.7396896 191.89061,24.9384022 C191.177591,23.4965345 188.973402,23.4309951 185.66778,24.02085 C184.630421,21.8583107 183.787931,20.8096797 182.491364,19.6299698 L182.491364,19.6299698 Z" id="Shape" fill="#FFFFFF"></path>
                <path d="M184.491364,19.6299698 C193.177327,18.2536416 199.724232,19.0401149 201.539213,22.9069417 C204.780232,29.6575039 190.584459,43.6174042 169.64744,53.9726354 C148.645554,64.3278666 129.069176,67.080523 125.828422,60.2644215 C124.013441,56.463134 124.830248,51.9406507 131.830965,45.5833252 C132.220174,47.2218111 132.803456,48.401521 133.516475,49.8433886 C130.729003,52.3338873 131.986119,53.5791366 132.699138,55.0865437 C134.254912,58.2979762 149.488044,54.8243859 166.406422,46.5008773 C183.324799,38.1773687 195.705326,28.7396896 193.89061,24.9384022 C193.177591,23.4965345 190.973402,23.4309951 187.66778,24.02085 C186.630421,21.8583107 185.787931,20.8096797 184.491364,19.6299698 L184.491364,19.6299698 Z" id="Shape" fill="#FCFFF0"></path>
                <path d="M131.735013,65.9721828 C125.831973,65.9052347 122.117701,64.365429 120.658523,61.3527657 C118.469755,56.8672448 121.78607,50.708022 129.877877,43.8123705 L131.536034,42.6073051 L132.13297,44.5487993 C132.530928,46.2225011 133.127865,47.4275664 133.857454,48.900424 L134.122759,49.5029567 L133.658475,50.1054894 C129.612571,53.9884776 130.076855,54.8588026 130.076855,54.8588026 C130.806445,56.3316602 141.816608,55.3943872 162.974693,45.0174358 C166.821618,43.1428897 170.403237,41.3352917 173.852204,39.2599015 C174.44914,38.9921092 175.510361,38.791265 175.775666,39.3937976 C176.040971,39.9963303 176.173624,41.0674995 175.576687,41.3352917 C172.459352,43.2767859 168.280796,45.2852281 164.367545,47.2267222 C155.745128,51.5113989 140.689061,57.8045178 133.127865,57.4028294 C130.607466,57.5367255 129.148287,56.8002967 128.551351,55.5952314 C127.689109,53.7876334 128.75033,51.3775028 132.000318,48.2978914 C131.668686,47.6953587 131.469707,47.025878 131.403381,46.3563973 C125.566668,51.8461393 122.84729,56.9341929 124.173816,59.6121158 C126.097278,63.495104 135.382958,63.7628963 148.051279,60.1477004 C148.648215,59.8799081 149.245152,60.2815965 149.64311,61.2188696 C149.908415,61.8214022 149.510457,62.4239349 148.581889,62.8256233 C141.41865,65.302702 135.913569,66.173027 131.735013,65.9721828 L131.735013,65.9721828 Z" id="Shape" fill="#DEEFB4"></path>
                <path d="M152.138321,60.8007368 C151.675495,60.669398 151.278787,60.4723898 151.080433,60.2097123 C150.81596,59.6186878 151.212669,59.0276632 152.138321,58.6336469 C156.89882,57.0575815 161.328728,54.8904917 166.089227,52.592063 C176.205286,47.7325281 184.998985,41.6252748 191.280199,35.6493602 C202.438543,24.9673145 199.147187,25.4653512 197.892002,22.9094985 C196.569642,20.2827229 191.412435,19.4946902 184.007215,20.1513841 C184.271687,20.7424086 184.470041,21.0707556 185.197339,21.7931189 C188.899949,21.0707556 191.081845,21.8587882 192.007497,23.6318618 C193.197622,25.9959598 190.751254,29.3450988 184.800631,33.6792785 C184.205569,33.9419561 183.14768,34.0732949 182.883208,33.5479398 C182.618736,32.9569152 182.420382,31.906205 183.015444,31.6435274 C188.833831,26.9810007 189.56113,24.8139108 189.428894,24.4855639 C189.296658,24.1572169 188.106533,23.3035148 184.139451,24.1572169 L183.412152,24.1572169 L183.148474,23.5661924 C182.421175,22.1214658 181.561641,21.0707556 180.833549,19.5603596 L179.644218,17.9186248 L181.693083,17.6559473 C191.941379,16.0142125 198.553183,17.5246085 200.404488,21.3991025 C202.321911,25.2079272 199.544953,30.9211641 192.999268,37.0284174 C186.718054,43.004332 177.659883,49.2429241 166.948761,54.3651365 C162.188263,56.6635652 157.295528,58.6993163 152.667265,60.5380592 C152.468911,61.3917613 152.138321,60.8007368 152.138321,60.8007368 L152.138321,60.8007368 Z" id="Shape" fill="#DEEFB4"></path>
                <path d="M176.076843,39.9531227 C175.748116,40.0854138 175.353644,39.9531227 175.024917,39.3578124 C174.761935,38.7625021 176.654088,35.6020661 177.245797,35.3374837 C178.692985,34.6098823 177.391751,35.9843875 178.838151,35.2567861 C179.430648,34.9922038 180.482575,34.793767 180.744767,35.3890773 C181.007749,35.9843875 181.204985,37.0427169 180.613277,37.3072993 C179.758586,37.7703184 178.377933,38.7625021 176.931534,39.4901036 L176.076843,39.9531227 L176.076843,39.9531227 Z" id="Shape" fill="#DEEFB4"></path>
                <path d="M194.645111,70.96 C194.645111,70.32 195.290223,70 196.25789,70 C196.903001,70 197.226331,70.64 197.226331,71.6 L196.25789,76.72 C196.25789,76.72 195.935334,76.4 195.290223,76.4 C194.645111,76.4 194,75.76 194,75.76 L194.645111,70.96 M201.41878,72.24 C201.41878,71.6 202.063892,71.28 203.031559,71.28 C203.67667,71.28 204,71.92 204,72.88 L203.031559,78 C203.031559,78 202.709003,77.68 202.063892,77.68 C201.41878,77.68 201.096225,77.36 201.096225,77.36 L201.41878,72.24" id="Shape" fill="#F76161"></path>
                <path d="M28,27.5115132 C28,28.6942865 26.9926407,29.6531136 25.75,29.6531136 C24.5073593,29.6531136 23.5,28.6942865 23.5,27.5115132 L23.5,27.1416004 C23.5,25.9588272 24.5073593,25 25.75,25 C26.9926407,25 28,25.9588272 28,27.1416004 L28,27.5115132 Z M23.5,34.9429964 C23.5,35.5109603 23.2629384,36.055658 22.8409737,36.4572448 C22.419009,36.8588316 21.846712,37.0844061 21.25,37.0843372 C20.0074658,37.0843372 19.0001506,36.1256683 19,34.9429964 L19,34.9095096 C19,33.7267363 20.0073593,32.7679092 21.25,32.7679092 C22.4926407,32.7679092 23.5,33.7267363 23.5,34.9095096 L23.5,34.9429964 L23.5,34.9429964 Z M23.5,50.9291998 C23.5,51.5205864 22.9963203,52 22.375,52 C21.7536797,52 21.25,51.5205864 21.25,50.9291998 L21.25,50.581352 C21.25,49.9899653 21.7536797,49.5105518 22.375,49.5105518 C22.9963203,49.5105518 23.5,49.9899653 23.5,50.581352 L23.5,50.9291998 Z" id="Shape" fill="#FFC200"></path>
                <path d="M29,50.5 C29,51.8807119 30.1192881,53 31.5,53 C32.8807119,53 34,51.8807119 34,50.5 C34,49.1192881 32.8807119,48 31.5,48 C30.1192881,48 29,49.1192881 29,50.5 L29,50.5 Z" id="Shape" fill="#FFC200"></path>
            </g>
        </g>
    </g>
</svg>