<?xml version="1.0" encoding="UTF-8"?>
<svg width="40px" height="40px" viewBox="0 0 40 40" version="1.1" xmlns="http://www.w3.org/2000/svg" xmlns:xlink="http://www.w3.org/1999/xlink">
    <!-- Generator: Sketch 45.2 (43514) - http://www.bohemiancoding.com/sketch -->
    <title>phone</title>
    <desc>Created with Sketch.</desc>
    <defs></defs>
    <g id="微信月报" stroke="none" stroke-width="1" fill="none" fill-rule="evenodd">
        <g id="尾页" transform="translate(-53.000000, -256.000000)">
            <g id="Group-2" transform="translate(53.000000, 256.000000)">
                <g id="phone">
                    <circle id="Oval" fill="#12789E" cx="20" cy="20" r="20"></circle>
                    <g id="电话" transform="translate(10.000000, 10.000000)" fill-rule="nonzero" fill="#FFFFFF" opacity="0.479999989">
                        <path d="M19.9997772,15.5958141 C20.0001373,15.8969648 19.891585,16.2526255 19.6623452,16.5544357 C18.858648,17.6124609 17.9992063,18.6213064 16.9478724,19.4520604 C16.8805467,19.5052516 16.8073196,19.5510245 16.7395506,19.6036936 C16.2553597,19.9799603 15.7160336,20.0565325 15.1146461,19.9648218 C13.6838778,19.7466722 12.4060193,19.1604984 11.1899452,18.4187075 C9.53672511,17.4103017 8.06930177,16.1689099 6.67693412,14.8369889 C5.0320258,13.2634823 3.4850861,11.6038149 2.18423152,9.73248208 C1.41876871,8.63132148 0.759059895,7.47457943 0.34205612,6.19464062 C0.147033228,5.59602073 0.00902935987,4.98336122 0.000108027205,4.35377725 C-0.00299504267,4.1349958 0.0610890496,3.90157029 0.149028063,3.69798237 C0.350257122,3.23206551 0.683505518,2.84961696 1.02434538,2.47826822 C1.7344238,1.70463414 2.52351985,1.01534754 3.3601318,0.381147827 C3.82797618,0.0264762388 4.36248136,-0.0834502435 4.9404296,0.0630451465 C5.27703043,0.14835426 5.54372888,0.332352661 5.73548249,0.622623422 C6.55998689,1.87080144 7.38795457,3.11675397 8.20968835,4.36671785 C8.52273904,4.84291026 8.4896857,5.35297906 8.30433223,5.85983327 C8.22683841,6.07180098 8.11640207,6.27555375 7.99624093,6.4679045 C7.52753764,7.21823999 7.05082732,7.96371244 6.57184508,8.70767381 C6.50543367,8.81081402 6.51335761,8.87980313 6.58844099,8.97390417 C7.98116882,10.7196774 9.55210197,12.2895848 11.2961702,13.6907147 C11.4202102,13.7903657 11.5047691,13.7842388 11.6170617,13.686044 C12.1815726,13.1924601 12.7579138,12.7118443 13.3136695,12.2088365 C13.671604,11.8848817 14.0621762,11.6464008 14.5473369,11.5788679 C14.9411785,11.5240558 15.3123287,11.5737301 15.6514785,11.799133 C16.8919339,12.6235404 18.1356309,13.4431672 19.3751719,14.2689209 C19.7896268,14.5449872 20.0079782,14.9945016 19.9997772,15.5958141 Z" id="Shape"></path>
                    </g>
                </g>
            </g>
        </g>
    </g>
</svg>